static_grf.mot
version=1
nRows=27
nColumns 19
inDegrees=yes
endheader
time	1_ground_force_vx	1_ground_force_vy	1_ground_force_vz	1_ground_force_px	1_ground_force_py	1_ground_force_pz	1_ground_torque_x	1_ground_torque_y	1_ground_torque_z	2_ground_force_vx	2_ground_force_vy	2_ground_force_vz	2_ground_force_px	2_ground_force_py	2_ground_force_pz	2_ground_torque_x	2_ground_torque_y	2_ground_torque_z
            1.351500	            1.681025	          254.279343	          -23.264050	           -0.257584	            0.006400	           -0.447590	            0.008597	            1.300447	           -0.118978	           -3.138925	          223.641551	           26.093571	           -0.218499	            0.005881	           -0.749846	            0.010525	           -0.749904	           -0.087496
            1.352000	            1.589405	          253.918794	          -23.265368	           -0.257951	            0.006401	           -0.447940	            0.007800	            1.246049	           -0.114170	           -3.422641	          224.376795	           26.190175	           -0.218634	            0.005883	           -0.750536	            0.011284	           -0.739717	           -0.086343
            1.352500	            1.406033	          253.918758	          -23.264913	           -0.258205	            0.006403	           -0.448312	            0.006895	            1.245131	           -0.114083	           -3.420730	          223.825012	           26.000491	           -0.218547	            0.005881	           -0.749998	            0.010423	           -0.681986	           -0.079223
            1.353000	            1.452412	          254.098050	          -23.034974	           -0.258186	            0.006400	           -0.447767	            0.007075	            1.237805	           -0.112212	           -3.514224	          223.823000	           26.469812	           -0.218455	            0.005882	           -0.749997	            0.010743	           -0.684244	           -0.080920
            1.353500	            1.360678	          253.737697	          -23.082149	           -0.258109	            0.006404	           -0.448643	            0.006347	            1.183645	           -0.107674	           -3.140898	          224.193836	           26.142470	           -0.218464	            0.005881	           -0.749970	            0.010091	           -0.720318	           -0.083994
            1.354000	            1.589665	          253.738135	          -23.174429	           -0.257726	            0.006402	           -0.448060	            0.008165	            1.303278	           -0.119031	           -3.236530	          224.745418	           26.285265	           -0.218920	            0.005880	           -0.750091	            0.010268	           -0.712986	           -0.083388
            1.354500	            1.452283	          253.557646	          -23.129005	           -0.257801	            0.006403	           -0.448343	            0.006948	            1.213128	           -0.110659	           -3.324351	          223.088589	           26.044751	           -0.218487	            0.005881	           -0.749806	            0.010522	           -0.706094	           -0.082434
            1.355000	            1.498141	          254.098255	          -23.080944	           -0.257647	            0.006402	           -0.448069	            0.007501	            1.272208	           -0.115561	           -3.656370	          224.192980	           25.861120	           -0.218400	            0.005883	           -0.750216	            0.011247	           -0.689614	           -0.079548
            1.355500	            1.543364	          255.000379	          -23.260617	           -0.257542	            0.006396	           -0.446606	            0.007807	            1.289850	           -0.117658	           -3.420648	          223.824342	           26.188203	           -0.218673	            0.005882	           -0.750329	            0.011601	           -0.759083	           -0.088815
            1.356000	            1.635119	          253.378399	          -23.359513	           -0.257754	            0.006404	           -0.448514	            0.008327	            1.290293	           -0.118955	           -3.423991	          224.745244	           26.144561	           -0.218340	            0.005882	           -0.750005	            0.010713	           -0.703191	           -0.081802
            1.356500	            1.543595	          253.738519	          -23.266027	           -0.257728	            0.006403	           -0.448298	            0.008003	            1.315563	           -0.120628	           -3.369810	          222.719637	           26.184241	           -0.218682	            0.005880	           -0.749916	            0.011674	           -0.771592	           -0.090713
            1.357000	            1.314542	          254.098613	          -23.172201	           -0.257548	            0.006402	           -0.448016	            0.006301	            1.218038	           -0.111077	           -3.423471	          224.562274	           25.815407	           -0.218501	            0.005883	           -0.750355	            0.010721	           -0.703254	           -0.080845
            1.357500	            1.635296	          254.279137	          -23.218080	           -0.257897	            0.006402	           -0.448026	            0.008234	            1.280362	           -0.116909	           -3.376477	          224.561272	           26.143884	           -0.218492	            0.005884	           -0.750773	            0.010719	           -0.712917	           -0.082999
            1.358000	            1.498126	          253.557655	          -23.129119	           -0.258081	            0.006402	           -0.448193	            0.007313	            1.237777	           -0.112908	           -3.375127	          224.192823	           26.189498	           -0.218727	            0.005881	           -0.750219	            0.010507	           -0.697929	           -0.081530
            1.358500	            1.543496	          254.279316	          -23.263708	           -0.257614	            0.006401	           -0.447814	            0.007796	            1.284277	           -0.117497	           -3.517732	          224.745240	           26.050744	           -0.218261	            0.005885	           -0.750673	            0.010901	           -0.696477	           -0.080730
            1.359000	            1.543286	          253.558843	          -23.404368	           -0.257537	            0.006401	           -0.447868	            0.007713	            1.267293	           -0.116976	           -3.563815	          224.560093	           26.284748	           -0.218406	            0.005884	           -0.750603	            0.011295	           -0.711701	           -0.083305
            1.359500	            1.635002	          254.640062	          -23.308246	           -0.257857	            0.006400	           -0.447768	            0.008286	            1.290434	           -0.118119	           -3.328256	          224.192825	           26.236406	           -0.218471	            0.005883	           -0.750471	            0.010463	           -0.704772	           -0.082477
            1.360000	            1.313907	          254.460127	          -23.399934	           -0.257575	            0.006401	           -0.447854	            0.006416	            1.242476	           -0.114257	           -3.418695	          223.272224	           26.092376	           -0.218595	            0.005880	           -0.749791	            0.010433	           -0.681383	           -0.079629
            1.360500	            1.451858	          254.639633	          -23.216079	           -0.257478	            0.006400	           -0.447538	            0.006878	            1.206271	           -0.109979	           -3.377100	          224.745078	           26.238397	           -0.218916	            0.005882	           -0.750590	            0.010848	           -0.721953	           -0.084286
            1.361000	            1.405967	          254.279290	          -23.263367	           -0.257936	            0.006400	           -0.447595	            0.007047	            1.274521	           -0.116603	           -3.422080	          224.193491	           25.954877	           -0.218131	            0.005885	           -0.750552	            0.011003	           -0.720870	           -0.083455
            1.361500	            1.543514	          253.558450	          -23.312656	           -0.257753	            0.006401	           -0.447926	            0.007846	            1.288952	           -0.118509	           -3.469491	          224.376626	           26.190195	           -0.218558	            0.005883	           -0.750368	            0.011195	           -0.723999	           -0.084508
            1.362000	            1.497946	          253.918383	          -23.173429	           -0.257905	            0.006401	           -0.447779	            0.007171	            1.215501	           -0.110931	           -3.326180	          223.639703	           26.422147	           -0.218846	            0.005881	           -0.750264	            0.010719	           -0.720722	           -0.085150
            1.362500	            1.543334	          253.919178	          -23.356966	           -0.257875	            0.006401	           -0.447882	            0.007690	            1.265245	           -0.116385	           -3.332265	          225.297867	           26.193420	           -0.218209	            0.005885	           -0.750629	            0.010341	           -0.699181	           -0.081288
            1.363000	            1.543463	          254.459582	          -23.262936	           -0.257697	            0.006398	           -0.447237	            0.007348	            1.211406	           -0.110748	           -3.230610	          223.088593	           26.138567	           -0.218125	            0.005883	           -0.749973	            0.010877	           -0.751134	           -0.088008
            1.363500	            1.681172	          254.098881	          -23.218967	           -0.257927	            0.006400	           -0.447646	            0.008102	            1.224542	           -0.111896	           -3.420627	          223.824175	           26.235132	           -0.218457	            0.005883	           -0.750501	            0.010503	           -0.687243	           -0.080554
            1.364000	            1.543840	          253.017260	          -23.223263	           -0.257740	            0.006404	           -0.448694	            0.007744	            1.269158	           -0.116490	           -3.608671	          224.007472	           26.282796	           -0.218397	            0.005884	           -0.750485	            0.010632	           -0.660008	           -0.077439
            1.364500	            1.589650	          253.197534	          -23.222604	           -0.257947	            0.006403	           -0.448407	            0.007820	            1.245602	           -0.114243	           -3.140130	          224.008828	           26.376453	           -0.218709	            0.005882	           -0.750488	            0.009892	           -0.705651	           -0.083089
